<svg xmlns="http://www.w3.org/2000/svg" width="300" height="500" viewBox="0 0 300 500">
  <!-- Background -->
  <rect width="300" height="500" fill="#ffffff"/>

  <!-- Header -->
  <rect x="0" y="0" width="300" height="70" fill="#ffffff"/>
  <text x="150" y="35" font-family="Georgia, serif" font-size="24" fill="#004b87" text-anchor="middle" letter-spacing="3">JAH</text>
  <text x="150" y="52" font-family="Arial, sans-serif" font-size="9" fill="#666666" text-anchor="middle" letter-spacing="2">JA4 HASH ENRICHMENT</text>
  <line x1="20" y1="68" x2="280" y2="68" stroke="#004b87" stroke-width="2"/>

  <!-- Hash display box -->
  <rect x="20" y="85" width="260" height="45" fill="#f7f7f7" rx="4" stroke="#d4d4d4"/>
  <text x="35" y="112" font-family="Monaco, monospace" font-size="10" fill="#004b87">t13d1517h2_8daaf6152771</text>
  <text x="35" y="124" font-family="Monaco, monospace" font-size="10" fill="#004b87">_b0da82dd1658</text>

  <!-- Summary section (navy background) -->
  <rect x="20" y="145" width="260" height="80" fill="#004b87" rx="4"/>
  <rect x="20" y="145" width="260" height="4" fill="#117aca" rx="4 4 0 0"/>
  <text x="35" y="168" font-family="Arial, sans-serif" font-size="9" fill="#7aacdc" letter-spacing="2">SUMMARY</text>
  <text x="35" y="188" font-family="Georgia, serif" font-size="12" fill="white">This fingerprint is associated with</text>
  <text x="35" y="204" font-family="Georgia, serif" font-size="12" fill="white">Sliver C2 framework, commonly</text>
  <text x="35" y="220" font-family="Georgia, serif" font-size="12" fill="white">used in red team operations...</text>

  <!-- JA4DB section -->
  <rect x="20" y="240" width="260" height="90" fill="#f7f7f7" rx="4" stroke="#d4d4d4"/>
  <rect x="20" y="240" width="4" height="90" fill="#1a8754" rx="4 0 0 4"/>
  <text x="35" y="262" font-family="Arial, sans-serif" font-size="11" fill="#333333" font-weight="bold">JA4 DATABASE</text>
  <text x="250" y="262" font-family="Arial, sans-serif" font-size="10" fill="#117aca">↗</text>

  <rect x="35" y="275" width="50" height="22" fill="#1a8754" rx="2"/>
  <text x="43" y="290" font-family="Arial, sans-serif" font-size="14" fill="white" font-weight="bold">12</text>
  <text x="88" y="290" font-family="Arial, sans-serif" font-size="10" fill="#666666">MATCHES</text>

  <text x="35" y="318" font-family="Arial, sans-serif" font-size="10" fill="#666666">APPLICATIONS</text>
  <text x="130" y="318" font-family="Arial, sans-serif" font-size="11" fill="#333333">Sliver</text>

  <!-- Parsed components section -->
  <rect x="20" y="345" width="260" height="70" fill="#f7f7f7" rx="4" stroke="#d4d4d4"/>
  <text x="35" y="367" font-family="Arial, sans-serif" font-size="11" fill="#333333" font-weight="bold">PARSED COMPONENTS</text>
  <text x="35" y="388" font-family="Arial, sans-serif" font-size="9" fill="#666666">PROTOCOL</text>
  <text x="110" y="388" font-family="Monaco, monospace" font-size="10" fill="#004b87">TLS 1.3</text>
  <text x="35" y="405" font-family="Arial, sans-serif" font-size="9" fill="#666666">SNI</text>
  <text x="110" y="405" font-family="Monaco, monospace" font-size="10" fill="#004b87">d (domain present)</text>

  <!-- History section -->
  <line x1="20" y1="435" x2="280" y2="435" stroke="#004b87" stroke-width="2"/>
  <text x="35" y="458" font-family="Arial, sans-serif" font-size="9" fill="#004b87" letter-spacing="2" font-weight="bold">RECENT LOOKUPS</text>
  <text x="260" y="458" font-family="Arial, sans-serif" font-size="10" fill="#117aca">▼</text>

  <!-- Footer -->
  <text x="35" y="488" font-family="Arial, sans-serif" font-size="18" fill="#666666">⚙️</text>
  <text x="255" y="488" font-family="Arial, sans-serif" font-size="9" fill="#999999" letter-spacing="1">V1.1.0</text>
</svg>
